# xmcd
#
# Track frame offsets: 
#        150
#        24022
#        45401
#        68782
#        87895
#        113422
#        129798
#        151769
#        175964
#        201052
#        226634
#        267628
#        283603
#
# Disc length: 4125 seconds
#
# Revision: 11
# Processed by: cddbd v1.5.2PL0 Copyright (c) Steve Scherf et al.
# Submitted via: ExactAudioCopy v0.95b3
#
DISCID=96101b0d
DTITLE=Lucinda Williams - West
DYEAR=2007
DGENRE=Country
TTITLE0=Are You Alright?
TTITLE1=Mama You Sweet
TTITLE2=Learning How To Live
TTITLE3=Fancy Funeral
TTITLE4=Unsuffer Me
TTITLE5=Everything Has Changed
TTITLE6=Come On
TTITLE7=Where Is My Love?
TTITLE8=Rescue
TTITLE9=What If
TTITLE10=Wrap My Head Around That
TTITLE11=Words
TTITLE12=West
EXTD=
EXTT0=
EXTT1=
EXTT2=
EXTT3=
EXTT4=
EXTT5=
EXTT6=
EXTT7=
EXTT8=
EXTT9=
EXTT10=
EXTT11=
EXTT12=
PLAYORDER=
